<?xml version="1.0" encoding="UTF-8" ?>
<!DOCTYPE svg PUBLIC "-//W3C//DTD SVG 1.1//EN" "http://www.w3.org/Graphics/SVG/1.1/DTD/svg11.dtd">
<svg width="485pt" height="372pt" viewBox="0 0 485 372" version="1.1" xmlns="http://www.w3.org/2000/svg">
<g id="#ffffffff">
</g>
<g id="#eb5757ff">
<path fill="#eb5757" opacity="1.00" d=" M 237.26 10.33 C 252.57 7.86 268.86 10.67 281.99 19.08 C 292.00 25.20 299.84 34.39 305.25 44.73 C 344.68 112.98 384.06 181.26 423.49 249.51 C 429.43 260.22 432.23 272.67 431.26 284.88 C 430.16 300.57 422.93 315.70 411.52 326.51 C 400.74 336.91 386.06 343.43 371.04 343.77 C 290.37 343.77 209.69 343.76 129.01 343.77 C 116.46 344.34 103.86 340.50 93.43 333.58 C 78.83 324.05 68.61 308.22 65.60 291.07 C 63.24 276.73 65.59 261.56 72.97 248.96 C 113.11 179.43 153.26 109.89 193.39 40.35 C 202.70 24.57 219.12 13.17 237.26 10.33 Z" />
</g>
</svg>
