<?xml version="1.0" encoding="UTF-8" ?>
<!DOCTYPE svg PUBLIC "-//W3C//DTD SVG 1.1//EN" "http://www.w3.org/Graphics/SVG/1.1/DTD/svg11.dtd">
<svg className="locationIcon" viewBox="0 0 282 367" version="1.1" xmlns="http://www.w3.org/2000/svg">
<g id="#ffffffff">
</g>
<g id="#4f4f4fff">
<path fill="#4f4f4f" opacity="1.00" d=" M 132.31 74.32 C 153.26 71.12 175.37 77.73 191.25 91.71 C 202.98 101.99 211.34 116.15 214.42 131.47 C 218.06 146.72 215.07 162.56 210.14 177.16 C 197.81 210.40 177.25 239.79 155.41 267.42 C 152.74 270.12 151.07 274.06 147.31 275.44 C 142.77 277.60 137.09 275.72 134.31 271.66 C 112.02 244.14 91.20 214.83 77.79 181.86 C 74.21 171.58 70.55 161.05 70.35 150.06 C 70.03 147.58 69.58 145.08 70.30 142.63 C 71.24 118.18 85.86 94.91 107.20 83.04 C 114.83 78.38 123.59 75.96 132.31 74.32 M 134.64 121.82 C 122.48 125.75 114.72 139.47 117.64 151.91 C 120.03 165.43 134.72 175.16 148.08 171.94 C 156.22 170.76 163.04 164.86 166.65 157.65 C 169.41 152.89 168.83 147.16 168.65 141.89 C 167.59 133.59 161.46 126.65 154.25 122.84 C 148.16 120.05 140.99 119.81 134.64 121.82 Z" />
</g>
</svg>
