<?xml version="1.0" encoding="UTF-8" ?>
<!DOCTYPE svg PUBLIC "-//W3C//DTD SVG 1.1//EN" "http://www.w3.org/Graphics/SVG/1.1/DTD/svg11.dtd">
<svg width="1079pt" height="267pt" viewBox="0 0 1079 267" version="1.1" xmlns="http://www.w3.org/2000/svg">
<g id="#ffffffff">
</g>
<g id="#eb5757ff">
<path opacity="1.00" d=" M 118.49 56.60 C 132.73 53.32 148.67 60.49 155.79 73.25 C 177.90 111.52 200.01 149.79 222.07 188.09 C 229.61 200.71 227.72 217.95 217.78 228.73 C 211.18 236.42 201.09 240.74 191.00 240.61 C 147.32 240.62 103.64 240.63 59.96 240.61 C 52.74 240.60 45.47 238.73 39.57 234.46 C 30.10 227.92 23.91 216.59 24.31 204.99 C 24.19 198.23 26.49 191.66 30.06 185.98 C 52.00 147.98 73.93 109.96 95.90 71.98 C 101.04 64.17 109.22 58.28 118.49 56.60 Z" />
<path opacity="1.00" d=" M 475.29 101.20 C 483.39 98.46 494.00 101.55 497.18 110.05 C 500.52 117.83 495.75 127.39 487.74 129.82 C 482.55 131.05 476.56 131.16 471.90 128.17 C 465.78 124.69 462.98 116.39 465.91 109.95 C 467.43 105.72 471.18 102.74 475.29 101.20 Z" />
<path opacity="1.00" d=" M 689.76 110.46 C 699.07 110.35 708.40 110.44 717.72 110.41 C 717.73 150.85 717.73 191.28 717.72 231.72 C 708.41 231.73 699.10 231.72 689.79 231.72 C 689.76 227.30 689.72 222.89 689.88 218.47 C 685.56 225.09 678.81 230.09 671.08 231.90 C 660.89 234.86 649.58 232.76 640.63 227.23 C 629.08 219.74 622.33 206.31 621.32 192.78 C 621.11 184.30 620.71 175.59 623.62 167.47 C 627.93 153.03 640.69 140.79 655.99 139.24 C 661.75 139.11 667.74 138.59 673.23 140.75 C 679.89 142.87 685.68 147.25 689.77 152.88 C 689.77 138.74 689.79 124.60 689.76 110.46 M 665.50 163.67 C 659.69 164.78 654.64 168.84 651.99 174.08 C 648.11 182.13 648.58 192.18 653.15 199.85 C 658.77 209.03 672.50 211.47 681.01 204.96 C 690.73 197.69 692.07 182.85 686.24 172.75 C 682.16 165.78 673.39 161.81 665.50 163.67 Z" />
<path opacity="1.00" d=" M 737.69 110.45 C 747.11 110.35 756.53 110.46 765.96 110.38 C 766.06 124.58 765.96 138.77 766.01 152.97 C 770.80 145.76 778.63 140.94 787.11 139.44 C 795.50 138.58 804.37 138.87 811.94 143.01 C 823.54 148.73 830.85 160.77 833.43 173.14 C 835.87 186.75 834.84 201.54 827.68 213.65 C 822.37 223.07 813.01 230.34 802.28 232.30 C 789.12 235.42 773.34 230.85 766.02 218.92 C 766.01 223.19 765.99 227.46 765.99 231.73 C 756.58 231.75 747.18 231.65 737.78 231.78 C 737.60 191.34 737.77 150.89 737.69 110.45 M 784.23 163.28 C 780.19 163.89 776.12 165.24 773.06 168.05 C 767.10 173.09 765.12 181.52 765.91 189.01 C 766.60 194.57 768.60 200.32 773.07 203.98 C 778.67 208.95 787.16 209.88 793.95 206.99 C 800.91 203.91 805.61 196.59 805.84 189.04 C 805.93 184.31 806.22 179.32 803.99 174.99 C 800.60 167.56 792.45 162.43 784.23 163.28 Z" />
<path opacity="1.00" d=" M 959.98 110.41 C 969.40 110.47 978.84 110.28 988.27 110.52 C 988.16 124.55 988.24 138.58 988.23 152.62 C 993.16 145.71 1000.74 140.87 1009.13 139.47 C 1017.27 138.61 1025.87 138.82 1033.31 142.66 C 1045.47 148.47 1053.31 161.06 1055.57 174.07 C 1058.76 190.11 1055.67 208.14 1044.67 220.66 C 1033.46 233.55 1013.12 237.06 998.25 228.71 C 994.21 226.42 990.85 223.12 988.21 219.33 C 988.22 223.41 988.18 227.50 988.30 231.58 C 978.85 231.89 969.40 231.64 959.96 231.72 C 959.96 191.28 959.93 150.85 959.98 110.41 M 1006.19 163.26 C 1000.46 163.99 994.90 166.86 991.72 171.79 C 987.79 177.38 987.53 184.57 988.32 191.12 C 989.16 198.66 994.53 205.63 1001.93 207.75 C 1007.47 209.35 1013.76 208.76 1018.63 205.53 C 1023.97 202.29 1027.14 196.24 1027.79 190.12 C 1028.61 183.01 1027.71 174.91 1022.37 169.64 C 1018.40 165.07 1012.15 162.79 1006.19 163.26 Z" />
<path opacity="1.00" d=" M 544.13 151.85 C 554.30 138.86 573.76 135.81 588.29 142.75 C 598.48 147.91 605.20 158.61 606.44 169.85 C 607.30 177.86 606.92 185.92 607.00 193.96 C 606.99 206.55 607.01 219.14 606.99 231.72 C 597.67 231.72 588.35 231.72 579.04 231.72 C 579.02 215.50 579.03 199.28 579.04 183.06 C 578.99 178.37 578.72 173.30 575.71 169.44 C 569.39 160.20 553.72 160.26 547.41 169.47 C 545.37 172.57 544.06 176.22 544.17 179.96 C 544.13 197.21 544.25 214.46 544.11 231.70 C 534.70 231.74 525.29 231.71 515.88 231.72 C 515.82 201.15 515.87 170.58 515.86 140.01 C 525.31 140.07 534.76 139.83 544.21 140.14 C 544.17 144.04 544.17 147.95 544.13 151.85 Z" />
<path opacity="1.00" d=" M 877.14 152.58 C 887.44 138.19 909.13 135.36 923.97 144.03 C 934.58 150.39 940.10 162.85 940.39 174.92 C 940.44 193.85 940.37 212.77 940.41 231.70 C 931.08 231.75 921.76 231.71 912.43 231.71 C 912.44 215.14 912.39 198.57 912.46 181.99 C 912.65 176.77 911.26 171.23 907.51 167.41 C 900.57 160.55 887.90 160.97 881.53 168.42 C 877.76 173.07 877.44 179.31 877.18 185.04 C 877.13 200.60 877.20 216.16 877.16 231.72 C 867.84 231.72 858.53 231.72 849.22 231.72 C 849.21 201.15 849.22 170.58 849.21 140.01 C 858.53 139.99 867.84 140.00 877.16 140.01 C 877.16 144.20 877.18 148.39 877.14 152.58 Z" />
<path opacity="1.00" d=" M 315.90 140.00 C 325.25 140.00 334.59 140.00 343.94 140.00 C 347.98 161.87 352.53 183.66 356.83 205.48 C 362.15 183.68 366.97 161.76 372.44 140.00 C 382.30 140.00 392.16 139.98 402.02 140.02 C 407.01 161.84 412.46 183.55 417.54 205.36 C 422.02 183.63 425.95 161.75 430.49 140.01 C 439.26 140.00 448.02 139.99 456.79 140.01 C 448.70 170.61 440.17 201.11 432.10 231.72 C 421.65 231.67 411.21 231.83 400.77 231.63 C 396.53 211.87 391.05 192.36 386.74 172.60 C 385.72 174.56 385.37 176.75 384.89 178.89 C 380.50 196.50 375.99 214.08 371.70 231.71 C 361.36 231.73 351.03 231.72 340.70 231.71 C 332.54 201.11 323.85 170.65 315.90 140.00 Z" />
<path opacity="1.00" d=" M 467.62 140.01 C 476.94 140.00 486.27 139.98 495.60 140.02 C 495.58 170.58 495.60 201.15 495.59 231.71 C 486.26 231.71 476.93 231.75 467.60 231.69 C 467.63 201.13 467.60 170.57 467.62 140.01 Z" />
</g>
</svg>
