<?xml version="1.0" encoding="UTF-8" ?>
<!DOCTYPE svg PUBLIC "-//W3C//DTD SVG 1.1//EN" "http://www.w3.org/Graphics/SVG/1.1/DTD/svg11.dtd">
<svg width="245pt" height="288pt" viewBox="0 0 245 288" version="1.1" xmlns="http://www.w3.org/2000/svg">
<g >
<path opacity="1.00" d=" M 52.75 71.64 C 62.38 61.92 75.45 55.60 89.11 54.48 C 94.41 53.31 99.76 54.43 105.04 55.06 C 123.60 58.21 140.14 70.93 148.15 87.93 C 154.74 101.21 155.66 117.04 151.23 131.13 C 148.91 138.81 144.65 145.76 139.67 152.01 C 140.38 152.74 141.10 153.47 141.82 154.20 C 144.26 154.17 146.71 154.02 149.15 154.24 C 151.41 155.78 152.94 158.15 154.88 160.07 C 166.15 171.48 177.66 182.69 188.84 194.18 C 193.63 199.65 189.30 209.34 182.06 209.43 C 177.80 210.08 174.31 207.18 171.70 204.21 C 159.74 192.18 147.69 180.24 135.74 168.20 C 135.58 164.77 136.87 160.51 133.36 158.35 C 121.35 168.43 105.40 173.91 89.71 172.36 C 74.85 171.46 60.86 164.02 50.81 153.21 C 41.53 142.73 35.64 129.05 35.56 114.95 C 34.97 98.96 41.39 82.89 52.75 71.64 M 91.60 72.57 C 80.39 73.25 69.72 79.00 62.70 87.72 C 56.41 95.56 53.13 105.78 53.84 115.82 C 54.42 128.60 61.59 140.88 72.35 147.77 C 86.26 157.01 105.97 156.48 119.22 146.25 C 128.28 139.63 134.31 129.05 135.46 117.90 C 136.71 107.32 133.55 96.30 126.89 87.98 C 118.74 77.31 104.93 71.41 91.60 72.57 Z" />
</g>
</svg>
